<?xml version="1.0" encoding="UTF-8"?>
<!-- Created with Inkscape (http://www.inkscape.org/) -->
<svg width="533.25" height="270.45" version="1.1" viewBox="0 0 141.08906 71.557674" xmlns="http://www.w3.org/2000/svg" xmlns:cc="http://creativecommons.org/ns#" xmlns:dc="http://purl.org/dc/elements/1.1/" xmlns:rdf="http://www.w3.org/1999/02/22-rdf-syntax-ns#">
 <metadata>
  <rdf:RDF>
   <cc:Work rdf:about="">
    <dc:format>image/svg+xml</dc:format>
    <dc:type rdf:resource="http://purl.org/dc/dcmitype/StillImage"/>
    <dc:title/>
   </cc:Work>
  </rdf:RDF>
 </metadata>
 <g transform="translate(-.56259 -.65897)" fill-opacity=".94118">
  <text x="36.096725" y="142.62035" fill="#159fef" font-family="sans-serif" font-size="10.583px" letter-spacing="0px" stroke-width=".26458" word-spacing="0px" style="line-height:6.61458302px" xml:space="preserve"><tspan x="36.096725" y="148.96855" fill="#159fef" fill-opacity=".94118" stroke-width=".26458"/></text>
  <path d="m44.286 38.082 0.30603-7.5515 4.4267-0.98124 4.4267-0.98123 0.0188-10.476 0.0188-10.476 4.1887-3.4785 4.1887-3.4785 1.7816 1.3376c0.97989 0.73567 3.7736 3.2189 6.2084 5.5182l4.4268 4.1806v9.9341l2.604 1.7062 2.604 1.7062v18.509h18.749v2.0832h-54.254zm25.825-5.9891c0-6.8745-0.21231-12.499-0.47179-12.499s-1.6656 0.54395-3.1248 1.2088l-2.653 1.2088v22.581h6.2495zm-19.79 4.7207v-6.7367l-2.3436 0.86229-2.3436 0.8623-0.31238 5.8744-0.31238 5.8744h5.3119zm11.959-9.1474c0.39671-8.7363 0.56324-18.123 0.37006-20.859l-0.35123-4.9751-3.9724 3.283-3.9724 3.283 0.2578 10.433 0.25779 10.433 1.8919 0.49473 1.8919 0.49473v13.298h2.9054z" fill="#169fef" stroke-width="1.0416"/>
  <text x="-0.8636834" y="71.832169" fill="#159fef" font-family="sans-serif" font-size="25.4px" letter-spacing="0px" stroke-width=".26458" word-spacing="0px" style="line-height:6.61458302px" xml:space="preserve"><tspan x="-0.8636834" y="71.832169" fill="#159fef" fill-opacity=".94118" stroke-width=".26458">GranitProm</tspan></text>
 </g>
</svg>
