<?xml version="1.0" encoding="UTF-8"?><!-- Created with Inkscape (http://www.inkscape.org/) --><svg width="171.11" height="86.784" version="1.1" viewBox="0 0 45.27293 22.961563" xmlns="http://www.w3.org/2000/svg" xmlns:cc="http://creativecommons.org/ns#" xmlns:dc="http://purl.org/dc/elements/1.1/" xmlns:rdf="http://www.w3.org/1999/02/22-rdf-syntax-ns#"> <metadata> <rdf:RDF> <cc:Work rdf:about=""> <dc:format>image/svg+xml</dc:format> <dc:type rdf:resource="http://purl.org/dc/dcmitype/StillImage"/> <dc:title/> </cc:Work> </rdf:RDF> </metadata> <g transform="translate(-.56259 -49.255)" fill-opacity=".94118"> <text x="11.96485" y="94.807922" fill="#159fef" font-family="sans-serif" font-size="3.396px" letter-spacing="0px" stroke-width=".0849" word-spacing="0px" style="line-height:2.12250018px" xml:space="preserve"><tspan x="11.96485" y="96.844948" fill="#159fef" fill-opacity=".94118" stroke-width=".0849"/></text> <path d="m14.593 61.264 0.0982-2.4231 1.4205-0.31486 1.4205-0.31486 6e-3 -3.3616 6e-3 -3.3616 1.3441-1.1162 1.3441-1.1162 0.57169 0.42921c0.31443 0.23606 1.2109 1.0329 1.9922 1.7707l1.4205 1.3415v3.1877l0.83557 0.54749 0.83557 0.54748v5.9392h6.0161v0.66845h-17.409zm8.2867-1.9218c0-2.2059-0.06813-4.0107-0.15139-4.0107-0.08326 0-0.53447 0.17454-1.0027 0.38788l-0.85129 0.38788v7.2457h2.0054zm-6.3503 1.5148v-2.1617l-0.75201 0.27669-0.75201 0.2767-0.10024 1.885-0.10024 1.885h1.7045zm3.8376-2.9352c0.1273-2.8033 0.18073-5.8153 0.11875-6.6934l-0.1127-1.5964-1.2747 1.0534-1.2747 1.0534 0.08272 3.3477 0.08272 3.3477 0.60707 0.15875 0.60706 0.15875v4.267h0.9323z" fill="#169fef" stroke-width=".33423"/> <text x="0.10492197" y="72.093269" fill="#159fef" font-family="sans-serif" font-size="8.1504px" letter-spacing="0px" stroke-width=".0849" word-spacing="0px" style="line-height:2.12250018px" xml:space="preserve"><tspan x="0.10492197" y="72.093269" fill="#159fef" fill-opacity=".94118" stroke-width=".0849">GranitProm</tspan></text> </g></svg>